<?xml version="1.0" encoding="UTF-8"?>
<svg xmlns="http://www.w3.org/2000/svg" xmlns:xlink="http://www.w3.org/1999/xlink" width="14pt" height="14pt" viewBox="0 0 14 14" version="1.1">
<g id="surface1">
<path style=" stroke:none;fill-rule:nonzero;fill:rgb(44.313725%,69.411765%,89.411765%);fill-opacity:1;" d="M 7 2.332031 C 4.421875 2.332031 2.332031 4.421875 2.332031 7 C 2.332031 9.578125 4.421875 11.667969 7 11.667969 C 9.578125 11.667969 11.667969 9.578125 11.667969 7 C 11.667969 4.421875 9.578125 2.332031 7 2.332031 Z M 7 10.109375 C 5.28125 10.109375 3.890625 8.71875 3.890625 7 C 3.890625 5.28125 5.28125 3.890625 7 3.890625 C 8.71875 3.890625 10.109375 5.28125 10.109375 7 C 10.109375 8.71875 8.71875 10.109375 7 10.109375 Z M 7.535156 7.527344 L 8.089844 8.082031 C 7.804688 8.378906 7.410156 8.546875 7 8.554688 C 6.140625 8.554688 5.445312 7.859375 5.445312 7 C 5.445312 6.140625 6.140625 5.445312 7 5.445312 C 7.414062 5.445312 7.8125 5.613281 8.105469 5.910156 L 7.550781 6.457031 C 7.304688 6.203125 6.917969 6.148438 6.613281 6.324219 C 6.304688 6.5 6.152344 6.859375 6.246094 7.199219 C 6.335938 7.542969 6.648438 7.777344 7 7.777344 C 7.203125 7.769531 7.398438 7.679688 7.535156 7.527344 Z M 7.535156 7.527344 "/>
</g>
</svg>
