<?xml version="1.0" encoding="UTF-8"?>
<svg xmlns="http://www.w3.org/2000/svg" xmlns:xlink="http://www.w3.org/1999/xlink" width="14pt" height="14pt" viewBox="0 0 14 14" version="1.1">
<g id="surface1">
<path style=" stroke:none;fill-rule:nonzero;fill:rgb(96.862745%,57.647059%,11.764706%);fill-opacity:1;" d="M 3.109375 10.265625 L 3.554688 9.675781 C 3.859375 10.023438 4.292969 10.226562 4.753906 10.234375 C 5.296875 10.234375 5.679688 9.949219 5.679688 9.457031 C 5.679688 8.96875 5.351562 8.59375 4.191406 8.59375 L 4.191406 7.925781 C 5.1875 7.925781 5.515625 7.589844 5.515625 7.148438 C 5.523438 6.949219 5.4375 6.753906 5.289062 6.625 C 5.136719 6.496094 4.933594 6.441406 4.738281 6.480469 C 4.347656 6.496094 3.980469 6.667969 3.71875 6.953125 L 3.25 6.386719 C 3.667969 5.980469 4.226562 5.753906 4.808594 5.753906 C 5.777344 5.753906 6.449219 6.230469 6.449219 7.085938 C 6.445312 7.628906 6.082031 8.101562 5.5625 8.246094 C 6.167969 8.359375 6.605469 8.886719 6.609375 9.503906 C 6.609375 10.421875 5.832031 10.964844 4.835938 10.964844 C 4.1875 11 3.554688 10.742188 3.109375 10.265625 Z M 7.574219 10.109375 L 8.703125 10.109375 L 8.703125 6.8125 L 7.777344 6.8125 L 7.777344 6.222656 C 8.1875 6.15625 8.582031 6.015625 8.945312 5.808594 L 9.628906 5.808594 L 9.628906 10.109375 L 10.617188 10.109375 L 10.617188 10.890625 L 7.574219 10.890625 Z M 7.574219 10.109375 "/>
<path style=" stroke:none;fill-rule:nonzero;fill:rgb(44.313725%,69.411765%,89.411765%);fill-opacity:1;" d="M 2.332031 2.332031 L 11.667969 2.332031 L 11.667969 3.890625 L 2.332031 3.890625 Z M 2.332031 2.332031 "/>
</g>
</svg>
