<?xml version="1.0" encoding="UTF-8"?>
<svg xmlns="http://www.w3.org/2000/svg" xmlns:xlink="http://www.w3.org/1999/xlink" width="14pt" height="14pt" viewBox="0 0 14 14" version="1.1">
<g id="surface1">
<path style=" stroke:none;fill-rule:nonzero;fill:rgb(44.313725%,69.411765%,89.411765%);fill-opacity:1;" d="M 12.6875 5.304688 C 12.214844 5.097656 11.707031 4.992188 11.191406 4.992188 C 10.777344 4.988281 10.363281 5.058594 9.972656 5.195312 C 10.070312 5.1875 10.171875 5.1875 10.273438 5.195312 C 11.238281 5.257812 11.992188 6.058594 11.992188 7.027344 C 11.992188 7.996094 11.238281 8.796875 10.273438 8.859375 C 9.621094 8.859375 9.140625 8.507812 8.46875 7.792969 L 7.777344 7 L 7 7.777344 C 8.066406 9.023438 8.898438 9.933594 10.273438 9.933594 C 11.382812 9.9375 12.402344 9.324219 12.910156 8.335938 C 13.417969 7.351562 13.332031 6.164062 12.6875 5.265625 Z M 3.726562 4.050781 C 2.519531 4.050781 1.433594 4.785156 0.984375 5.90625 C 0.539062 7.027344 0.820312 8.308594 1.695312 9.140625 C 1.972656 9.203125 2.257812 9.234375 2.542969 9.230469 C 3.285156 9.234375 4.007812 9 4.605469 8.554688 C 4.339844 8.714844 4.035156 8.796875 3.726562 8.796875 C 2.714844 8.796875 1.898438 7.976562 1.898438 6.96875 C 1.898438 5.960938 2.714844 5.140625 3.726562 5.140625 C 4.582031 5.171875 5.140625 5.761719 6.222656 7 L 7 6.222656 C 5.933594 4.96875 5.101562 4.050781 3.726562 4.050781 Z M 3.726562 4.050781 "/>
<path style=" stroke:none;fill-rule:nonzero;fill:rgb(96.862745%,57.647059%,11.764706%);fill-opacity:1;" d="M 12.6875 5.304688 C 12.214844 5.097656 11.707031 4.992188 11.191406 4.992188 C 10.777344 4.988281 10.363281 5.058594 9.972656 5.195312 C 9.261719 5.328125 8.710938 5.910156 7.777344 7 L 7 7.777344 C 5.933594 9.03125 5.101562 9.933594 3.726562 9.933594 C 2.976562 9.941406 2.25 9.664062 1.695312 9.15625 C 1.972656 9.21875 2.257812 9.25 2.542969 9.246094 C 3.289062 9.25 4.011719 9.007812 4.605469 8.554688 C 5.21875 8.121094 5.765625 7.597656 6.222656 7 L 7 6.222656 C 8.066406 4.96875 8.898438 4.066406 10.273438 4.066406 C 11.230469 4.0625 12.128906 4.523438 12.6875 5.304688 Z M 12.6875 5.304688 "/>
</g>
</svg>
