<?xml version="1.0" encoding="UTF-8"?>
<svg xmlns="http://www.w3.org/2000/svg" xmlns:xlink="http://www.w3.org/1999/xlink" width="14pt" height="14pt" viewBox="0 0 14 14" version="1.1">
<g id="surface1">
<path style=" stroke:none;fill-rule:nonzero;fill:rgb(44.313725%,69.411765%,89.411765%);fill-opacity:1;" d="M 1.992188 9.855469 L 3.546875 9.855469 L 3.546875 5.234375 L 2.269531 5.234375 L 2.269531 4.457031 C 2.839844 4.367188 3.386719 4.175781 3.890625 3.890625 L 4.84375 3.890625 L 4.84375 9.878906 L 6.222656 9.878906 L 6.222656 10.890625 L 1.992188 10.890625 Z M 7.390625 10.148438 C 9.339844 8.261719 10.570312 7.039062 10.570312 5.949219 C 10.609375 5.628906 10.5 5.304688 10.277344 5.070312 C 10.050781 4.835938 9.734375 4.714844 9.410156 4.738281 C 8.863281 4.792969 8.363281 5.074219 8.035156 5.515625 L 7.328125 4.808594 C 7.875 4.128906 8.703125 3.734375 9.574219 3.734375 C 10.164062 3.683594 10.746094 3.894531 11.171875 4.308594 C 11.597656 4.71875 11.820312 5.296875 11.792969 5.886719 C 11.792969 7.132812 10.632812 8.414062 9.238281 9.886719 C 9.605469 9.886719 10.070312 9.808594 10.414062 9.808594 L 12.132812 9.808594 L 12.132812 10.890625 L 7.390625 10.890625 Z M 7.390625 10.148438 "/>
</g>
</svg>
