<?xml version="1.0" encoding="UTF-8"?>
<svg width="1920px" height="1080px" viewBox="0 0 1920 1080" version="1.1" xmlns="http://www.w3.org/2000/svg" xmlns:xlink="http://www.w3.org/1999/xlink">
    <title>json_kit</title>
    <defs>
        <polygon id="path-1" points="16.5 0 33 11.6666667 29.7 11.6666667 29.7 25 21.45 25 21.45 16.6666667 11.55 16.6666667 11.55 25 3.3 25 3.3 11.6666667 0 11.6666667"></polygon>
        <filter x="-3.0%" y="-4.0%" width="106.1%" height="108.0%" filterUnits="objectBoundingBox" id="filter-2">
            <feGaussianBlur stdDeviation="0.5" in="SourceAlpha" result="shadowBlurInner1"></feGaussianBlur>
            <feOffset dx="1" dy="1" in="shadowBlurInner1" result="shadowOffsetInner1"></feOffset>
            <feComposite in="shadowOffsetInner1" in2="SourceAlpha" operator="arithmetic" k2="-1" k3="1" result="shadowInnerInner1"></feComposite>
            <feColorMatrix values="0 0 0 0 0   0 0 0 0 0   0 0 0 0 0  0 0 0 0.05 0" type="matrix" in="shadowInnerInner1"></feColorMatrix>
        </filter>
        <filter color-interpolation-filters="auto" id="filter-3">
            <feColorMatrix in="SourceGraphic" type="matrix" values="0 0 0 0 0.968627 0 0 0 0 0.576471 0 0 0 0 0.117647 0 0 0 1.000000 0"></feColorMatrix>
        </filter>
        <filter color-interpolation-filters="auto" id="filter-4">
            <feColorMatrix in="SourceGraphic" type="matrix" values="0 0 0 0 0.968627 0 0 0 0 0.576471 0 0 0 0 0.117647 0 0 0 1.000000 0"></feColorMatrix>
        </filter>
        <filter color-interpolation-filters="auto" id="filter-5">
            <feColorMatrix in="SourceGraphic" type="matrix" values="0 0 0 0 0.968627 0 0 0 0 0.576471 0 0 0 0 0.117647 0 0 0 1.000000 0"></feColorMatrix>
        </filter>
        <filter color-interpolation-filters="auto" id="filter-6">
            <feColorMatrix in="SourceGraphic" type="matrix" values="0 0 0 0 0.968627 0 0 0 0 0.576471 0 0 0 0 0.117647 0 0 0 1.000000 0"></feColorMatrix>
        </filter>
        <filter color-interpolation-filters="auto" id="filter-7">
            <feColorMatrix in="SourceGraphic" type="matrix" values="0 0 0 0 0.968627 0 0 0 0 0.576471 0 0 0 0 0.117647 0 0 0 1.000000 0"></feColorMatrix>
        </filter>
        <filter color-interpolation-filters="auto" id="filter-8">
            <feColorMatrix in="SourceGraphic" type="matrix" values="0 0 0 0 0.968627 0 0 0 0 0.576471 0 0 0 0 0.117647 0 0 0 1.000000 0"></feColorMatrix>
        </filter>
    </defs>
    <g id="json_kit" stroke="none" stroke-width="1" fill="none" fill-rule="evenodd">
        <rect fill="#FFFFFF" x="0" y="0" width="1920" height="1080"></rect>
        <g id="trees-icon-label" transform="translate(463.000000, 309.500000)">
            <path d="M146.96,52.0642857 L146.96,41.6642857 L151.24,41.6642857 C157,41.6642857 160.96,39.1042857 160.96,33.5442857 C160.96,27.7842857 156.96,25.8242857 151.08,25.8242857 L143.6,25.8242857 L143.6,52.0642857 L146.96,52.0642857 Z M150.84,38.9442857 L146.96,38.9442857 L146.96,28.5442857 L150.68,28.5442857 C155.28,28.5442857 157.6,29.7842857 157.6,33.5442857 C157.6,37.2642857 155.4,38.9442857 150.84,38.9442857 Z M170.44,52.5442857 C172.88,52.5442857 175,51.3042857 176.84,49.7442857 L176.96,49.7442857 L177.28,52.0642857 L180,52.0642857 L180,40.1042857 C180,35.3042857 177.96,32.1442857 173.24,32.1442857 C170.12,32.1442857 167.4,33.4642857 165.6,34.6642857 L166.88,36.9042857 C168.4,35.9042857 170.44,34.9042857 172.68,34.9042857 C175.84,34.9042857 176.64,37.2642857 176.68,39.7042857 C168.36,40.6242857 164.76,42.7042857 164.76,47.0242857 C164.76,50.5442857 167.2,52.5442857 170.44,52.5442857 Z M171.36,49.8242857 C169.48,49.8242857 168,48.9842857 168,46.8242857 C168,44.3042857 170.12,42.8242857 176.68,42.0642857 L176.68,47.3442857 C174.8,48.9842857 173.24,49.8242857 171.36,49.8242857 Z M194.16,52.5442857 C198.92,52.5442857 202.72,48.6242857 202.72,42.4242857 C202.72,36.7442857 199.52,33.3442857 194.92,33.3442857 C192.48,33.3442857 190.08,34.4642857 188.36,36.5842857 C188.96,28.5842857 191.64,28.0642857 197.88,27.1442857 C199.52,26.9042857 200.88,26.5442857 201.92,25.8642857 L201.24,22.8642857 C200.04,23.4242857 199.36,23.6242857 197.2,23.9442857 C189.8,25.0642857 185,27.1442857 185,40.2642857 C185,48.1042857 188.36,52.5442857 194.16,52.5442857 Z M194.16,49.7842857 C190.2,49.7842857 188.2,46.5042857 188.2,40.9042857 L188.2,39.3842857 L188.2,39.3842857 C190.16,36.7442857 192.2,35.9042857 194.08,35.9042857 C197.44,35.9042857 199.28,38.4242857 199.28,42.4242857 C199.28,46.8242857 197.16,49.7842857 194.16,49.7842857 Z M215.48,52.5442857 C220.24,52.5442857 224.52,48.8242857 224.52,42.3842857 C224.52,35.8642857 220.24,32.1442857 215.48,32.1442857 C210.72,32.1442857 206.48,35.8642857 206.48,42.3842857 C206.48,48.8242857 210.72,52.5442857 215.48,52.5442857 Z M215.48,49.7842857 C212.16,49.7842857 209.92,46.8242857 209.92,42.3842857 C209.92,37.9042857 212.16,34.9042857 215.48,34.9042857 C218.84,34.9042857 221.08,37.9042857 221.08,42.3842857 C221.08,46.8242857 218.84,49.7842857 215.48,49.7842857 Z M243.56,52.0642857 L243.56,32.6242857 L240.24,32.6242857 L240.24,41.6642857 C239.12,41.9042857 238.24,42.0242857 237.08,42.0242857 C233.56,42.0242857 232,40.8242857 232,37.9442857 L232,32.6242857 L228.68,32.6242857 L228.68,37.9442857 C228.68,42.7842857 231.52,44.7442857 236.44,44.7442857 C238.16,44.7442857 238.88,44.5842857 240.24,44.3442857 L240.24,52.0642857 L243.56,52.0642857 Z M253.68,52.0642857 L260.6,41.1042857 C261.36,39.9042857 262.36,38.1442857 263.12,36.6642857 L263.28,36.6642857 C263.08,39.4642857 262.96,41.8642857 262.96,43.9442857 L262.96,52.0642857 L266.12,52.0642857 L266.12,32.6242857 L262.6,32.6242857 L255.64,43.6242857 C254.88,44.8242857 253.88,46.6242857 253.12,48.0242857 L252.96,48.0242857 C253.16,45.2642857 253.32,42.8242857 253.32,40.7442857 L253.32,32.6242857 L250.12,32.6242857 L250.12,52.0642857 L253.68,52.0642857 Z M280.8,29.1442857 C285.28,29.1442857 286.92,26.1442857 287.08,23.0242857 L284.36,23.0242857 C284.28,25.3042857 283.44,27.1842857 280.8,27.1842857 C278.16,27.1842857 277.32,25.3042857 277.24,23.0242857 L274.52,23.0242857 C274.68,26.1442857 276.32,29.1442857 280.8,29.1442857 Z M276.24,52.0642857 L283.16,41.1042857 C283.92,39.9042857 284.92,38.1442857 285.68,36.6642857 L285.84,36.6642857 C285.64,39.4642857 285.52,41.8642857 285.52,43.9442857 L285.52,52.0642857 L288.68,52.0642857 L288.68,32.6242857 L285.16,32.6242857 L278.2,43.6242857 C277.44,44.8242857 276.44,46.6242857 275.68,48.0242857 L275.52,48.0242857 C275.72,45.2642857 275.88,42.8242857 275.88,40.7442857 L275.88,32.6242857 L272.68,32.6242857 L272.68,52.0642857 L276.24,52.0642857 Z M306.56,52.0642857 L306.56,43.3042857 L310.76,43.3042857 L315.84,52.0642857 L319.44,52.0642857 L313.2,41.8242857 L314.84,38.0242857 C315.84,35.7842857 316.64,35.4642857 317.64,35.4642857 C317.92,35.4642857 318.04,35.5042857 318.28,35.5842857 L318.88,32.4642857 C318.56,32.3042857 318.16,32.2242857 317.72,32.2242857 C315.6,32.2242857 314.12,32.8642857 312.56,36.3042857 L310.64,40.6242857 L306.56,40.6242857 L306.56,32.6242857 L303.28,32.6242857 L303.28,52.0642857 L306.56,52.0642857 Z M327.56,52.5442857 C330,52.5442857 332.12,51.3042857 333.96,49.7442857 L334.08,49.7442857 L334.4,52.0642857 L337.12,52.0642857 L337.12,40.1042857 C337.12,35.3042857 335.08,32.1442857 330.36,32.1442857 C327.24,32.1442857 324.52,33.4642857 322.72,34.6642857 L324,36.9042857 C325.52,35.9042857 327.56,34.9042857 329.8,34.9042857 C332.96,34.9042857 333.76,37.2642857 333.8,39.7042857 C325.48,40.6242857 321.88,42.7042857 321.88,47.0242857 C321.88,50.5442857 324.32,52.5442857 327.56,52.5442857 Z M328.48,49.8242857 C326.6,49.8242857 325.12,48.9842857 325.12,46.8242857 C325.12,44.3042857 327.24,42.8242857 333.8,42.0642857 L333.8,47.3442857 C331.92,48.9842857 330.36,49.8242857 328.48,49.8242857 Z M350.88,52.0642857 L350.88,35.3042857 L357.36,35.3042857 L357.36,32.6242857 L341.04,32.6242857 L341.04,35.3042857 L347.56,35.3042857 L347.56,52.0642857 L350.88,52.0642857 Z M366.16,52.5442857 C368.6,52.5442857 370.72,51.3042857 372.56,49.7442857 L372.68,49.7442857 L373,52.0642857 L375.72,52.0642857 L375.72,40.1042857 C375.72,35.3042857 373.68,32.1442857 368.96,32.1442857 C365.84,32.1442857 363.12,33.4642857 361.32,34.6642857 L362.6,36.9042857 C364.12,35.9042857 366.16,34.9042857 368.4,34.9042857 C371.56,34.9042857 372.36,37.2642857 372.4,39.7042857 C364.08,40.6242857 360.48,42.7042857 360.48,47.0242857 C360.48,50.5442857 362.92,52.5442857 366.16,52.5442857 Z M367.08,49.8242857 C365.2,49.8242857 363.72,48.9842857 363.72,46.8242857 C363.72,44.3042857 365.84,42.8242857 372.4,42.0642857 L372.4,47.3442857 C370.52,48.9842857 368.96,49.8242857 367.08,49.8242857 Z M380.8,52.4242857 C383.64,52.4242857 385.4,50.3042857 385.96,46.0642857 C386.4,42.5042857 386.8,38.9042857 387.24,35.3042857 L393.24,35.3042857 L393.24,52.0642857 L396.56,52.0642857 L396.56,32.6242857 L384.6,32.6242857 C384.12,36.8242857 383.64,41.0242857 383.12,45.2242857 C382.76,47.9842857 381.88,49.2242857 380.52,49.2242857 C380.16,49.2242857 379.88,49.1442857 379.64,49.0642857 L379,52.1042857 C379.56,52.3442857 380.04,52.4242857 380.8,52.4242857 Z M410.68,52.5442857 C415.44,52.5442857 419.72,48.8242857 419.72,42.3842857 C419.72,35.8642857 415.44,32.1442857 410.68,32.1442857 C405.92,32.1442857 401.68,35.8642857 401.68,42.3842857 C401.68,48.8242857 405.92,52.5442857 410.68,52.5442857 Z M410.68,49.7842857 C407.36,49.7842857 405.12,46.8242857 405.12,42.3842857 C405.12,37.9042857 407.36,34.9042857 410.68,34.9042857 C414.04,34.9042857 416.28,37.9042857 416.28,42.3842857 C416.28,46.8242857 414.04,49.7842857 410.68,49.7842857 Z M428.12,52.0642857 L428.12,35.3042857 L436.92,35.3042857 L436.92,32.6242857 L424.8,32.6242857 L424.8,52.0642857 L428.12,52.0642857 Z" id="Рабочийкаталог" fill="#333333" fill-rule="nonzero"></path>
            <g id="Group">
                <path d="M39.1952339,1.36598157 L43.8047661,6.63401843 C44.5643185,7.50207827 45.6616226,8 46.8150729,8 L92,8 C94.209139,8 96,9.790861 96,12 L96,70 L96,70 L4,70 C1.790861,70 -3.72626139e-15,68.209139 0,66 L0,4 C-2.705415e-16,1.790861 1.790861,2.18216909e-15 4,0 L36.1849271,0 C37.3383774,-1.10006381e-15 38.4356815,0.497921729 39.1952339,1.36598157 Z" id="Path" fill="#FCA65C"></path>
                <path d="M58.1952339,14.3659816 L62.8047661,19.6340184 C63.5643185,20.5020783 64.6616226,21 65.8150729,21 L96.1538462,21 C98.3629852,21 100.153846,22.790861 100.153846,25 L100.153846,70 L100.153846,70 L12,70 C9.790861,70 8,68.209139 8,66 L8,17 C8,14.790861 9.790861,13 12,13 L55.1849271,13 C56.3383774,13 57.4356815,13.4979217 58.1952339,14.3659816 Z" id="Path" fill="#73B0DE" transform="translate(54.076923, 41.500000) scale(-1, 1) translate(-54.076923, -41.500000) "></path>
                <path d="M9,58 L9,70 L4,70 L4.19964034,69.9951047 C6.31603153,69.8910789 8,68.1421954 8,66 L8,66 L8,58 L9,58 Z" id="Combined-Shape" fill="#73B0DE"></path>
                <g transform="translate(37.000000, 29.000000)" id="Path">
                    <use fill="#61A2D3" fill-rule="evenodd" xlink:href="#path-1"></use>
                    <use fill="black" fill-opacity="1" filter="url(#filter-2)" xlink:href="#path-1"></use>
                </g>
            </g>
        </g>
        <g id="trees-icon-label" transform="translate(625.000000, 440.500000)">
            <path d="M146.76,52.5442857 C147.6,52.5442857 148.2,52.4242857 148.68,52.1842857 L148.24,49.7042857 C147.92,49.7842857 147.76,49.7842857 147.56,49.7842857 C147.04,49.7842857 146.6,49.4242857 146.6,48.3842857 L146.6,23.5842857 L143.28,23.5842857 L143.28,48.1442857 C143.28,50.9442857 144.28,52.5442857 146.76,52.5442857 Z M155.16,28.6242857 C156.44,28.6242857 157.36,27.7842857 157.36,26.4642857 C157.36,25.1842857 156.44,24.3042857 155.16,24.3042857 C153.88,24.3042857 152.96,25.1842857 152.96,26.4642857 C152.96,27.7842857 153.88,28.6242857 155.16,28.6242857 Z M156.8,52.0642857 L156.8,32.6242857 L153.48,32.6242857 L153.48,52.0642857 L156.8,52.0642857 Z M171.96,52.5442857 C176.4,52.5442857 180.4,48.6642857 180.4,42.0242857 C180.4,36.0242857 177.68,32.1442857 172.68,32.1442857 C170.52,32.1442857 168.36,33.3042857 166.56,34.8242857 L166.68,31.3442857 L166.68,23.5842857 L163.36,23.5842857 L163.36,52.0642857 L166,52.0642857 L166.32,50.0642857 L166.44,50.0642857 C168.16,51.6242857 170.16,52.5442857 171.96,52.5442857 Z M171.4,49.7442857 C170.12,49.7442857 168.36,49.2242857 166.68,47.7442857 L166.68,37.5842857 C168.52,35.8242857 170.2,34.9442857 171.84,34.9442857 C175.48,34.9442857 176.96,37.7842857 176.96,42.0642857 C176.96,46.8642857 174.6,49.7442857 171.4,49.7442857 Z M190.6,52.5442857 C195.2,52.5442857 197.72,49.9042857 197.72,46.7442857 C197.72,43.2242857 194.8,41.9042857 191.76,40.8242857 C189.32,39.9842857 187.64,39.2642857 187.64,37.5042857 C187.64,36.0642857 188.72,34.7042857 191.2,34.7042857 C192.92,34.7042857 194.32,35.2642857 195.68,36.2642857 L197.2,34.3442857 C195.68,33.0642857 193.6,32.1442857 191.16,32.1442857 C186.92,32.1442857 184.44,34.5442857 184.44,37.6642857 C184.44,40.8642857 187.24,42.2642857 190.16,43.3042857 L190.598839,43.4651509 C192.6384,44.2214413 194.52,45.077619 194.52,46.9442857 C194.52,48.6242857 193.28,49.9442857 190.72,49.9442857 C188.32,49.9442857 186.56,49.2242857 184.88,47.8242857 L183.36,49.7442857 C185.16,51.5042857 187.76,52.5442857 190.6,52.5442857 Z" id="libs" fill="#333333" fill-rule="nonzero"></path>
            <g id="folder">
                <path d="M39.1952339,1.36598157 L43.8047661,6.63401843 C44.5643185,7.50207827 45.6616226,8 46.8150729,8 L92,8 C94.209139,8 96,9.790861 96,12 L96,70 L96,70 L4,70 C1.790861,70 -3.72626139e-15,68.209139 0,66 L0,4 C-2.705415e-16,1.790861 1.790861,2.18216909e-15 4,0 L36.1849271,0 C37.3383774,-1.10006381e-15 38.4356815,0.497921729 39.1952339,1.36598157 Z" id="Path" fill="#FCA65C"></path>
                <path d="M58.1952339,14.3659816 L62.8047661,19.6340184 C63.5643185,20.5020783 64.6616226,21 65.8150729,21 L96.1538462,21 C98.3629852,21 100.153846,22.790861 100.153846,25 L100.153846,70 L100.153846,70 L12,70 C9.790861,70 8,68.209139 8,66 L8,17 C8,14.790861 9.790861,13 12,13 L55.1849271,13 C56.3383774,13 57.4356815,13.4979217 58.1952339,14.3659816 Z" id="Path" fill="#73B0DE" transform="translate(54.076923, 41.500000) scale(-1, 1) translate(-54.076923, -41.500000) "></path>
                <path d="M9,58 L9,70 L4,70 L4.19964034,69.9951047 C6.31603153,69.8910789 8,68.1421954 8,66 L8,66 L8,58 L9,58 Z" id="Combined-Shape" fill="#73B0DE"></path>
            </g>
        </g>
        <g id="trees-icon-label-copy" transform="translate(787.000000, 571.500000)">
            <path d="M144.92,28.6242857 C146.2,28.6242857 147.12,27.7842857 147.12,26.4642857 C147.12,25.1842857 146.2,24.3042857 144.92,24.3042857 C143.64,24.3042857 142.72,25.1842857 142.72,26.4642857 C142.72,27.7842857 143.64,28.6242857 144.92,28.6242857 Z M141.28,60.7442857 C145.16,60.7442857 146.64,58.2242857 146.64,54.2242857 L146.64,32.6242857 L143.32,32.6242857 L143.32,54.2242857 C143.32,56.5842857 142.84,58.0242857 140.92,58.0242857 C140.28,58.0242857 139.56,57.8642857 139.08,57.7042857 L138.4,60.1842857 C139.08,60.5042857 140.12,60.7442857 141.28,60.7442857 Z M158.24,52.5442857 C162.84,52.5442857 165.36,49.9042857 165.36,46.7442857 C165.36,43.2242857 162.44,41.9042857 159.4,40.8242857 C156.96,39.9842857 155.28,39.2642857 155.28,37.5042857 C155.28,36.0642857 156.36,34.7042857 158.84,34.7042857 C160.56,34.7042857 161.96,35.2642857 163.32,36.2642857 L164.84,34.3442857 C163.32,33.0642857 161.24,32.1442857 158.8,32.1442857 C154.56,32.1442857 152.08,34.5442857 152.08,37.6642857 C152.08,40.8642857 154.88,42.2642857 157.8,43.3042857 L158.238839,43.4651509 C160.2784,44.2214413 162.16,45.077619 162.16,46.9442857 C162.16,48.6242857 160.92,49.9442857 158.36,49.9442857 C155.96,49.9442857 154.2,49.2242857 152.52,47.8242857 L151,49.7442857 C152.8,51.5042857 155.4,52.5442857 158.24,52.5442857 Z M177.48,52.5442857 C182.24,52.5442857 186.52,48.8242857 186.52,42.3842857 C186.52,35.8642857 182.24,32.1442857 177.48,32.1442857 C172.72,32.1442857 168.48,35.8642857 168.48,42.3842857 C168.48,48.8242857 172.72,52.5442857 177.48,52.5442857 Z M177.48,49.7842857 C174.16,49.7842857 171.92,46.8242857 171.92,42.3842857 C171.92,37.9042857 174.16,34.9042857 177.48,34.9042857 C180.84,34.9042857 183.08,37.9042857 183.08,42.3842857 C183.08,46.8242857 180.84,49.7842857 177.48,49.7842857 Z M194.92,52.0642857 L194.92,37.9842857 C196.84,36.0242857 198.24,35.0242857 200.2,35.0242857 C202.76,35.0242857 203.88,36.5442857 203.88,40.1842857 L203.88,52.0642857 L207.2,52.0642857 L207.2,39.7442857 C207.2,34.7842857 205.36,32.1442857 201.24,32.1442857 C198.56,32.1442857 196.56,33.5842857 194.72,35.4242857 L194.6,35.4242857 L194.32,32.6242857 L191.6,32.6242857 L191.6,52.0642857 L194.92,52.0642857 Z M229.72,57.1042857 L229.72,54.9042857 L210.68,54.9042857 L210.68,57.1042857 L229.72,57.1042857 Z M236.76,52.0642857 L236.76,46.9442857 L240.36,42.7442857 L246.04,52.0642857 L249.64,52.0642857 L242.32,40.4642857 L248.8,32.6242857 L245.08,32.6242857 L236.88,42.7842857 L236.76,42.7842857 L236.76,23.5842857 L233.48,23.5842857 L233.48,52.0642857 L236.76,52.0642857 Z M254.96,28.6242857 C256.24,28.6242857 257.16,27.7842857 257.16,26.4642857 C257.16,25.1842857 256.24,24.3042857 254.96,24.3042857 C253.68,24.3042857 252.76,25.1842857 252.76,26.4642857 C252.76,27.7842857 253.68,28.6242857 254.96,28.6242857 Z M256.6,52.0642857 L256.6,32.6242857 L253.28,32.6242857 L253.28,52.0642857 L256.6,52.0642857 Z M269.28,52.5442857 C270.6,52.5442857 271.92,52.1842857 272.96,51.7042857 L272.28,49.3442857 C271.48,49.7042857 270.76,49.8242857 270.04,49.8242857 C267.84,49.8242857 267.04,48.4642857 267.04,46.1042857 L267.04,35.3042857 L272.32,35.3042857 L272.32,32.6242857 L267.04,32.6242857 L267.04,26.3842857 L264.28,26.3842857 L263.88,32.6242857 L260.84,32.8242857 L260.84,35.3042857 L263.72,35.3042857 L263.72,46.0242857 C263.72,49.9042857 265.12,52.5442857 269.28,52.5442857 Z" id="json_kit" fill="#333333" fill-rule="nonzero"></path>
            <g id="folder">
                <path d="M39.1952339,1.36598157 L43.8047661,6.63401843 C44.5643185,7.50207827 45.6616226,8 46.8150729,8 L92,8 C94.209139,8 96,9.790861 96,12 L96,70 L96,70 L4,70 C1.790861,70 -3.72626139e-15,68.209139 0,66 L0,4 C-2.705415e-16,1.790861 1.790861,2.18216909e-15 4,0 L36.1849271,0 C37.3383774,-1.10006381e-15 38.4356815,0.497921729 39.1952339,1.36598157 Z" id="Path" fill="#FCA65C"></path>
                <path d="M58.1952339,14.3659816 L62.8047661,19.6340184 C63.5643185,20.5020783 64.6616226,21 65.8150729,21 L96.1538462,21 C98.3629852,21 100.153846,22.790861 100.153846,25 L100.153846,70 L100.153846,70 L12,70 C9.790861,70 8,68.209139 8,66 L8,17 C8,14.790861 9.790861,13 12,13 L55.1849271,13 C56.3383774,13 57.4356815,13.4979217 58.1952339,14.3659816 Z" id="Path" fill="#73B0DE" transform="translate(54.076923, 41.500000) scale(-1, 1) translate(-54.076923, -41.500000) "></path>
                <path d="M9,58 L9,70 L4,70 L4.19964034,69.9951047 C6.31603153,69.8910789 8,68.1421954 8,66 L8,66 L8,58 L9,58 Z" id="Combined-Shape" fill="#73B0DE"></path>
            </g>
        </g>
        <g id="trees-icon-label-copy-2" transform="translate(949.000000, 702.000000)">
            <path d="M130.76,52.48 C131.6,52.48 132.2,52.36 132.68,52.12 L132.24,49.64 C131.92,49.72 131.76,49.72 131.56,49.72 C131.04,49.72 130.6,49.36 130.6,48.32 L130.6,23.52 L127.28,23.52 L127.28,48.08 C127.28,50.88 128.28,52.48 130.76,52.48 Z M145.04,52.48 C149.8,52.48 154.08,48.76 154.08,42.32 C154.08,35.8 149.8,32.08 145.04,32.08 C140.28,32.08 136.04,35.8 136.04,42.32 C136.04,48.76 140.28,52.48 145.04,52.48 Z M145.04,49.72 C141.72,49.72 139.48,46.76 139.48,42.32 C139.48,37.84 141.72,34.84 145.04,34.84 C148.4,34.84 150.64,37.84 150.64,42.32 C150.64,46.76 148.4,49.72 145.04,49.72 Z M165.72,60.96 C171.76,60.96 175.56,57.84 175.56,54.2 C175.56,51 173.28,49.56 168.76,49.56 L165,49.56 C162.4,49.56 161.6,48.68 161.6,47.48 C161.6,46.4 162.12,45.76 162.84,45.16 C163.72,45.6 164.76,45.84 165.72,45.84 C169.68,45.84 172.84,43.24 172.84,39.08 C172.84,37.44 172.2,36 171.28,35.12 L175.24,35.12 L175.24,32.56 L168.48,32.56 C167.76,32.28 166.8,32.08 165.72,32.08 C161.76,32.08 158.4,34.76 158.4,39 C158.4,41.32 159.64,43.2 160.92,44.24 L160.92,44.4 C159.92,45.08 158.8,46.36 158.8,48 C158.8,49.52 159.56,50.56 160.52,51.16 L160.52,51.32 C158.76,52.52 157.68,54.08 157.68,55.72 C157.68,59.08 160.96,60.96 165.72,60.96 Z M165.72,43.6 C163.48,43.6 161.6,41.84 161.6,39 C161.6,36.16 163.44,34.48 165.72,34.48 C168,34.48 169.84,36.2 169.84,39 C169.84,41.84 167.96,43.6 165.72,43.6 Z M166.2,58.64 C162.68,58.64 160.56,57.36 160.56,55.28 C160.56,54.16 161.16,53 162.56,52 C163.4,52.24 164.32,52.32 165.08,52.32 L168.4,52.32 C170.96,52.32 172.32,52.92 172.32,54.72 C172.32,56.72 169.88,58.64 166.2,58.64 Z M181.04,28.56 C182.32,28.56 183.24,27.72 183.24,26.4 C183.24,25.12 182.32,24.24 181.04,24.24 C179.76,24.24 178.84,25.12 178.84,26.4 C178.84,27.72 179.76,28.56 181.04,28.56 Z M182.68,52 L182.68,32.56 L179.36,32.56 L179.36,52 L182.68,52 Z M192.56,52 L192.56,37.92 C194.48,35.96 195.88,34.96 197.84,34.96 C200.4,34.96 201.52,36.48 201.52,40.12 L201.52,52 L204.84,52 L204.84,39.68 C204.84,34.72 203,32.08 198.88,32.08 C196.2,32.08 194.2,33.52 192.36,35.36 L192.24,35.36 L191.96,32.56 L189.24,32.56 L189.24,52 L192.56,52 Z M218.68,52.48 C223.44,52.48 227.72,48.76 227.72,42.32 C227.72,35.8 223.44,32.08 218.68,32.08 C213.92,32.08 209.68,35.8 209.68,42.32 C209.68,48.76 213.92,52.48 218.68,52.48 Z M218.68,49.72 C215.36,49.72 213.12,46.76 213.12,42.32 C213.12,37.84 215.36,34.84 218.68,34.84 C222.04,34.84 224.28,37.84 224.28,42.32 C224.28,46.76 222.04,49.72 218.68,49.72 Z M236.12,52 L236.12,37.92 C237.92,35.92 239.52,34.96 240.96,34.96 C243.44,34.96 244.56,36.48 244.56,40.12 L244.56,52 L247.88,52 L247.88,37.92 C249.68,35.92 251.24,34.96 252.76,34.96 C255.2,34.96 256.36,36.48 256.36,40.12 L256.36,52 L259.68,52 L259.68,39.68 C259.68,34.72 257.76,32.08 253.76,32.08 C251.4,32.08 249.36,33.6 247.36,35.76 C246.56,33.48 244.96,32.08 241.96,32.08 C239.64,32.08 237.64,33.52 235.92,35.36 L235.8,35.36 L235.52,32.56 L232.8,32.56 L232.8,52 L236.12,52 Z M282.2,57.04 L282.2,54.84 L263.16,54.84 L263.16,57.04 L282.2,57.04 Z M287.6,28.56 C288.88,28.56 289.8,27.72 289.8,26.4 C289.8,25.12 288.88,24.24 287.6,24.24 C286.32,24.24 285.4,25.12 285.4,26.4 C285.4,27.72 286.32,28.56 287.6,28.56 Z M283.96,60.68 C287.84,60.68 289.32,58.16 289.32,54.16 L289.32,32.56 L286,32.56 L286,54.16 C286,56.52 285.52,57.96 283.6,57.96 C282.96,57.96 282.24,57.8 281.76,57.64 L281.08,60.12 C281.76,60.44 282.8,60.68 283.96,60.68 Z M300.92,52.48 C305.52,52.48 308.04,49.84 308.04,46.68 C308.04,43.16 305.12,41.84 302.08,40.76 C299.64,39.92 297.96,39.2 297.96,37.44 C297.96,36 299.04,34.64 301.52,34.64 C303.24,34.64 304.64,35.2 306,36.2 L307.52,34.28 C306,33 303.92,32.08 301.48,32.08 C297.24,32.08 294.76,34.48 294.76,37.6 C294.76,40.8 297.56,42.2 300.48,43.24 L300.918839,43.4008652 C302.9584,44.1571556 304.84,45.0133333 304.84,46.88 C304.84,48.56 303.6,49.88 301.04,49.88 C298.64,49.88 296.88,49.16 295.2,47.76 L293.68,49.68 C295.48,51.44 298.08,52.48 300.92,52.48 Z M320.16,52.48 C324.92,52.48 329.2,48.76 329.2,42.32 C329.2,35.8 324.92,32.08 320.16,32.08 C315.4,32.08 311.16,35.8 311.16,42.32 C311.16,48.76 315.4,52.48 320.16,52.48 Z M320.16,49.72 C316.84,49.72 314.6,46.76 314.6,42.32 C314.6,37.84 316.84,34.84 320.16,34.84 C323.52,34.84 325.76,37.84 325.76,42.32 C325.76,46.76 323.52,49.72 320.16,49.72 Z M337.6,52 L337.6,37.92 C339.52,35.96 340.92,34.96 342.88,34.96 C345.44,34.96 346.56,36.48 346.56,40.12 L346.56,52 L349.88,52 L349.88,39.68 C349.88,34.72 348.04,32.08 343.92,32.08 C341.24,32.08 339.24,33.52 337.4,35.36 L337.28,35.36 L337,32.56 L334.28,32.56 L334.28,52 L337.6,52 Z M372.4,57.04 L372.4,54.84 L353.36,54.84 L353.36,57.04 L372.4,57.04 Z M379.44,52 L379.44,46.88 L383.04,42.68 L388.72,52 L392.32,52 L385,40.4 L391.48,32.56 L387.76,32.56 L379.56,42.72 L379.44,42.72 L379.44,23.52 L376.16,23.52 L376.16,52 L379.44,52 Z M397.64,28.56 C398.92,28.56 399.84,27.72 399.84,26.4 C399.84,25.12 398.92,24.24 397.64,24.24 C396.36,24.24 395.44,25.12 395.44,26.4 C395.44,27.72 396.36,28.56 397.64,28.56 Z M399.28,52 L399.28,32.56 L395.96,32.56 L395.96,52 L399.28,52 Z M411.96,52.48 C413.28,52.48 414.6,52.12 415.64,51.64 L414.96,49.28 C414.16,49.64 413.44,49.76 412.72,49.76 C410.52,49.76 409.72,48.4 409.72,46.04 L409.72,35.24 L415,35.24 L415,32.56 L409.72,32.56 L409.72,26.32 L406.96,26.32 L406.56,32.56 L403.52,32.76 L403.52,35.24 L406.4,35.24 L406.4,45.96 C406.4,49.84 407.8,52.48 411.96,52.48 Z M421.12,52.48 C422.44,52.48 423.52,51.44 423.52,49.96 C423.52,48.44 422.44,47.4 421.12,47.4 C419.8,47.4 418.72,48.44 418.72,49.96 C418.72,51.44 419.8,52.48 421.12,52.48 Z M432.88,52.48 C433.72,52.48 434.32,52.36 434.8,52.12 L434.36,49.64 C434.04,49.72 433.88,49.72 433.68,49.72 C433.16,49.72 432.72,49.36 432.72,48.32 L432.72,23.52 L429.4,23.52 L429.4,48.08 C429.4,50.88 430.4,52.48 432.88,52.48 Z M446.16,60.96 C452.2,60.96 456,57.84 456,54.2 C456,51 453.72,49.56 449.2,49.56 L445.44,49.56 C442.84,49.56 442.04,48.68 442.04,47.48 C442.04,46.4 442.56,45.76 443.28,45.16 C444.16,45.6 445.2,45.84 446.16,45.84 C450.12,45.84 453.28,43.24 453.28,39.08 C453.28,37.44 452.64,36 451.72,35.12 L455.68,35.12 L455.68,32.56 L448.92,32.56 C448.2,32.28 447.24,32.08 446.16,32.08 C442.2,32.08 438.84,34.76 438.84,39 C438.84,41.32 440.08,43.2 441.36,44.24 L441.36,44.4 C440.36,45.08 439.24,46.36 439.24,48 C439.24,49.52 440,50.56 440.96,51.16 L440.96,51.32 C439.2,52.52 438.12,54.08 438.12,55.72 C438.12,59.08 441.4,60.96 446.16,60.96 Z M446.16,43.6 C443.92,43.6 442.04,41.84 442.04,39 C442.04,36.16 443.88,34.48 446.16,34.48 C448.44,34.48 450.28,36.2 450.28,39 C450.28,41.84 448.4,43.6 446.16,43.6 Z M446.64,58.64 C443.12,58.64 441,57.36 441,55.28 C441,54.16 441.6,53 443,52 C443.84,52.24 444.76,52.32 445.52,52.32 L448.84,52.32 C451.4,52.32 452.76,52.92 452.76,54.72 C452.76,56.72 450.32,58.64 446.64,58.64 Z M463.12,60.2 L463.12,53.64 L463.04,50.24 C464.8,51.64 466.64,52.48 468.4,52.48 C472.84,52.48 476.84,48.6 476.84,42 C476.84,35.96 474.12,32.08 469.12,32.08 C466.88,32.08 464.68,33.32 462.92,34.8 L462.8,34.8 L462.52,32.56 L459.8,32.56 L459.8,60.2 L463.12,60.2 Z M467.84,49.68 C466.56,49.68 464.88,49.16 463.12,47.68 L463.12,37.52 C465,35.76 466.64,34.88 468.28,34.88 C471.92,34.88 473.4,37.72 473.4,42 C473.4,46.8 471.04,49.68 467.84,49.68 Z" id="loginom_json_kit.lgp" fill="#333333" fill-rule="nonzero"></path>
            <g id="Group">
                <path d="M64,0 C66.209139,-4.05812251e-16 68,1.790861 68,4 L68,66 C68,68.209139 66.209139,70 64,70 L60,70 C62.209139,70 64,68.209139 64,66 L64,66 L64,4 C64,1.790861 62.209139,-4.05812251e-16 60,0 L60,0 L64,0 Z" id="Combined-Shape" fill="#FCA65C"></path>
                <path d="M72,0 C74.209139,-4.05812251e-16 76,1.790861 76,4 L76,66 C76,68.209139 74.209139,70 72,70 L68,70 C70.209139,70 72,68.209139 72,66 L72,66 L72,4 C72,1.790861 70.209139,-4.05812251e-16 68,0 L68,0 L72,0 Z" id="Combined-Shape" fill="#FCA65C"></path>
                <path d="M80,0 C82.209139,-4.05812251e-16 84,1.790861 84,4 L84,66 C84,68.209139 82.209139,70 80,70 L76,70 C78.209139,70 80,68.209139 80,66 L80,66 L80,4 C80,1.790861 78.209139,-4.05812251e-16 76,0 L76,0 L80,0 Z" id="Combined-Shape" fill="#FCA65C"></path>
                <rect id="Rectangle" fill="#73B0DE" x="0" y="0" width="60" height="70" rx="4"></rect>
                <g transform="translate(12.000000, 22.000000)" fill="#F9F9F9" id="Rectangle">
                    <rect x="0" y="0" width="36" height="2" rx="1"></rect>
                    <rect x="0" y="6" width="36" height="2" rx="1"></rect>
                    <rect x="0" y="12" width="36" height="2" rx="1"></rect>
                    <rect x="0" y="18" width="36" height="2" rx="1"></rect>
                    <rect x="0" y="24" width="25" height="2" rx="1"></rect>
                </g>
            </g>
        </g>
        <g id="Group" transform="translate(513.000000, 400.000000)">
            <g id="Arrow/Gray-Circle/L-Shape-Copy-2" transform="translate(40.000000, 40.000000) rotate(-180.000000) translate(-40.000000, -40.000000) ">
                <path d="M6,1 L80,1 L80,74" id="Path-4" stroke="#9A9FAF" stroke-width="4" stroke-dasharray="6"></path>
                <g id="Start-point" transform="translate(70.000000, 70.000000)" filter="url(#filter-3)">
                    <g transform="translate(10.000000, 10.000000) rotate(90.000000) translate(-10.000000, -10.000000) ">
                        <path d="M10,0 C15.5228475,0 20,4.4771525 20,10 C20,15.5228475 15.5228475,20 10,20 C4.4771525,20 0,15.5228475 0,10 C0,4.4771525 4.4771525,0 10,0 Z M10,6 C7.790861,6 6,7.790861 6,10 C6,12.209139 7.790861,14 10,14 C12.209139,14 14,12.209139 14,10 C14,7.790861 12.209139,6 10,6 Z" id="Shape" fill="#F7931E"></path>
                    </g>
                </g>
                <g id="Start-point" transform="translate(-10.000000, -9.000000)" filter="url(#filter-4)">
                    <g transform="translate(10.000000, 10.000000) rotate(90.000000) translate(-10.000000, -10.000000) ">
                        <path d="M10,0 C15.5228475,0 20,4.4771525 20,10 C20,15.5228475 15.5228475,20 10,20 C4.4771525,20 0,15.5228475 0,10 C0,4.4771525 4.4771525,0 10,0 Z M10,6 C7.790861,6 6,7.790861 6,10 C6,12.209139 7.790861,14 10,14 C12.209139,14 14,12.209139 14,10 C14,7.790861 12.209139,6 10,6 Z" id="Shape" fill="#F7931E"></path>
                    </g>
                </g>
            </g>
        </g>
        <g id="Group" transform="translate(675.000000, 531.000000)">
            <g id="Arrow/Gray-Circle/L-Shape-Copy-2" transform="translate(40.000000, 40.000000) rotate(-180.000000) translate(-40.000000, -40.000000) ">
                <path d="M6,1 L80,1 L80,74" id="Path-4" stroke="#9A9FAF" stroke-width="4" stroke-dasharray="6"></path>
                <g id="Start-point" transform="translate(70.000000, 70.000000)" filter="url(#filter-5)">
                    <g transform="translate(10.000000, 10.000000) rotate(90.000000) translate(-10.000000, -10.000000) ">
                        <path d="M10,0 C15.5228475,0 20,4.4771525 20,10 C20,15.5228475 15.5228475,20 10,20 C4.4771525,20 0,15.5228475 0,10 C0,4.4771525 4.4771525,0 10,0 Z M10,6 C7.790861,6 6,7.790861 6,10 C6,12.209139 7.790861,14 10,14 C12.209139,14 14,12.209139 14,10 C14,7.790861 12.209139,6 10,6 Z" id="Shape" fill="#F7931E"></path>
                    </g>
                </g>
                <g id="Start-point" transform="translate(-10.000000, -9.000000)" filter="url(#filter-6)">
                    <g transform="translate(10.000000, 10.000000) rotate(90.000000) translate(-10.000000, -10.000000) ">
                        <path d="M10,0 C15.5228475,0 20,4.4771525 20,10 C20,15.5228475 15.5228475,20 10,20 C4.4771525,20 0,15.5228475 0,10 C0,4.4771525 4.4771525,0 10,0 Z M10,6 C7.790861,6 6,7.790861 6,10 C6,12.209139 7.790861,14 10,14 C12.209139,14 14,12.209139 14,10 C14,7.790861 12.209139,6 10,6 Z" id="Shape" fill="#F7931E"></path>
                    </g>
                </g>
            </g>
        </g>
        <g id="Group" transform="translate(837.000000, 662.000000)">
            <g id="Arrow/Gray-Circle/L-Shape-Copy-2" transform="translate(40.000000, 40.000000) rotate(-180.000000) translate(-40.000000, -40.000000) ">
                <path d="M6,1 L80,1 L80,74" id="Path-4" stroke="#9A9FAF" stroke-width="4" stroke-dasharray="6"></path>
                <g id="Start-point" transform="translate(70.000000, 70.000000)" filter="url(#filter-7)">
                    <g transform="translate(10.000000, 10.000000) rotate(90.000000) translate(-10.000000, -10.000000) ">
                        <path d="M10,0 C15.5228475,0 20,4.4771525 20,10 C20,15.5228475 15.5228475,20 10,20 C4.4771525,20 0,15.5228475 0,10 C0,4.4771525 4.4771525,0 10,0 Z M10,6 C7.790861,6 6,7.790861 6,10 C6,12.209139 7.790861,14 10,14 C12.209139,14 14,12.209139 14,10 C14,7.790861 12.209139,6 10,6 Z" id="Shape" fill="#F7931E"></path>
                    </g>
                </g>
                <g id="Start-point" transform="translate(-10.000000, -9.000000)" filter="url(#filter-8)">
                    <g transform="translate(10.000000, 10.000000) rotate(90.000000) translate(-10.000000, -10.000000) ">
                        <path d="M10,0 C15.5228475,0 20,4.4771525 20,10 C20,15.5228475 15.5228475,20 10,20 C4.4771525,20 0,15.5228475 0,10 C0,4.4771525 4.4771525,0 10,0 Z M10,6 C7.790861,6 6,7.790861 6,10 C6,12.209139 7.790861,14 10,14 C12.209139,14 14,12.209139 14,10 C14,7.790861 12.209139,6 10,6 Z" id="Shape" fill="#F7931E"></path>
                    </g>
                </g>
            </g>
        </g>
    </g>
</svg>