<?xml version="1.0" encoding="UTF-8"?>
<svg xmlns="http://www.w3.org/2000/svg" xmlns:xlink="http://www.w3.org/1999/xlink" width="14pt" height="14pt" viewBox="0 0 14 14" version="1.1">
<g id="surface1">
<path style=" stroke:none;fill-rule:nonzero;fill:rgb(44.313725%,69.411765%,89.411765%);fill-opacity:1;" d="M 8.246094 10.050781 L 9.511719 10.050781 L 9.511719 6.308594 L 8.460938 6.308594 L 8.460938 5.671875 C 8.925781 5.597656 9.371094 5.441406 9.777344 5.203125 L 10.554688 5.203125 L 10.554688 10.050781 L 11.667969 10.050781 L 11.667969 10.890625 L 8.246094 10.890625 Z M 7.636719 3.109375 L 8.335938 3.109375 L 6.222656 10.890625 L 5.523438 10.890625 Z M 7.636719 3.109375 "/>
<path style=" stroke:none;fill-rule:nonzero;fill:rgb(96.862745%,57.647059%,11.764706%);fill-opacity:1;" d="M 1.851562 6.035156 C 1.851562 4.113281 2.605469 3.109375 3.789062 3.109375 C 4.96875 3.109375 5.714844 4.121094 5.714844 6.035156 C 5.714844 7.949219 4.9375 9.015625 3.789062 9.015625 C 2.636719 9.015625 1.851562 7.957031 1.851562 6.035156 Z M 4.730469 6.035156 C 4.730469 4.425781 4.339844 3.890625 3.789062 3.890625 C 3.234375 3.890625 2.839844 4.402344 2.839844 6.011719 C 2.839844 7.621094 3.242188 8.183594 3.789062 8.183594 C 4.332031 8.183594 4.730469 7.644531 4.730469 6.035156 Z M 4.730469 6.035156 "/>
</g>
</svg>
