<?xml version="1.0" encoding="UTF-8"?>
<svg xmlns="http://www.w3.org/2000/svg" xmlns:xlink="http://www.w3.org/1999/xlink" width="14pt" height="14pt" viewBox="0 0 14 14" version="1.1">
<g id="surface1">
<path style=" stroke:none;fill-rule:nonzero;fill:rgb(96.862745%,57.647059%,11.764706%);fill-opacity:1;" d="M 12.445312 9.332031 L 8.554688 9.332031 L 8.554688 8.554688 L 12.445312 8.554688 Z M 12.445312 5.445312 C 12.445312 7.117188 11.488281 7.777344 10.5 7.777344 C 9.511719 7.777344 8.554688 6.9375 8.554688 5.445312 C 8.554688 3.949219 9.449219 3.109375 10.515625 3.109375 C 11.707031 3.109375 12.445312 4.011719 12.445312 5.445312 Z M 11.558594 5.445312 C 11.558594 4.667969 11.261719 3.789062 10.5 3.789062 C 9.738281 3.789062 9.441406 4.667969 9.441406 5.445312 C 9.441406 6.386719 9.925781 7.070312 10.5 7.070312 C 11.074219 7.070312 11.558594 6.417969 11.558594 5.445312 Z M 11.558594 5.445312 "/>
<path style=" stroke:none;fill-rule:nonzero;fill:rgb(44.313725%,69.411765%,89.411765%);fill-opacity:1;" d="M 1.554688 10.890625 L 1.554688 3.109375 L 2.746094 3.109375 L 4.859375 6.953125 C 5.34375 7.871094 5.777344 8.734375 6.128906 9.550781 C 6.042969 8.460938 6.011719 7.550781 6.011719 6.324219 L 6.011719 3.109375 L 7 3.109375 L 7 10.890625 L 5.894531 10.890625 L 3.773438 7 C 3.296875 6.152344 2.863281 5.265625 2.488281 4.378906 L 2.449219 4.378906 C 2.503906 5.382812 2.527344 6.277344 2.527344 7.652344 L 2.527344 10.890625 Z M 1.554688 10.890625 "/>
</g>
</svg>
