<?xml version="1.0" encoding="UTF-8"?>
<svg xmlns="http://www.w3.org/2000/svg" xmlns:xlink="http://www.w3.org/1999/xlink" width="14pt" height="14pt" viewBox="0 0 14 14" version="1.1">
<g id="surface1">
<path style=" stroke:none;fill-rule:nonzero;fill:rgb(96.862745%,57.647059%,11.764706%);fill-opacity:1;" d="M 10.109375 3.765625 C 8.679688 3.765625 7.777344 4.984375 7.777344 7.328125 C 7.777344 9.667969 8.695312 10.949219 10.109375 10.949219 C 11.527344 10.949219 12.445312 9.667969 12.445312 7.328125 C 12.445312 4.984375 11.527344 3.765625 10.109375 3.765625 Z M 10.109375 4.746094 C 10.570312 4.746094 10.9375 5.046875 11.128906 5.847656 L 8.984375 7.996094 C 8.984375 7.785156 8.984375 7.566406 8.984375 7.328125 C 8.9375 5.367188 9.425781 4.746094 10.109375 4.746094 Z M 10.109375 9.972656 C 9.683594 9.972656 9.332031 9.675781 9.132812 8.945312 L 11.253906 6.820312 C 11.253906 6.984375 11.253906 7.140625 11.253906 7.328125 C 11.246094 9.285156 10.765625 9.972656 10.109375 9.972656 Z M 10.109375 9.972656 "/>
<path style=" stroke:none;fill-rule:nonzero;fill:rgb(44.313725%,69.411765%,89.411765%);fill-opacity:1;" d="M 1.65625 10.164062 L 2.332031 9.386719 C 2.609375 9.714844 3.015625 9.910156 3.445312 9.917969 C 4.316406 9.917969 5 9.269531 5.078125 7.351562 C 4.707031 7.8125 4.15625 8.09375 3.5625 8.128906 C 3.003906 8.164062 2.457031 7.949219 2.070312 7.542969 C 1.683594 7.140625 1.496094 6.585938 1.554688 6.027344 C 1.523438 5.433594 1.738281 4.851562 2.152344 4.421875 C 2.566406 3.992188 3.136719 3.753906 3.734375 3.765625 C 5.078125 3.765625 6.222656 4.808594 6.222656 7.140625 C 6.222656 9.832031 4.929688 10.949219 3.5 10.949219 C 2.800781 10.960938 2.132812 10.675781 1.65625 10.164062 Z M 5.046875 6.464844 C 4.914062 5.242188 4.410156 4.722656 3.734375 4.722656 C 3.058594 4.722656 2.699219 5.1875 2.699219 6.027344 C 2.699219 6.867188 3.109375 7.273438 3.804688 7.273438 C 4.328125 7.230469 4.796875 6.925781 5.046875 6.464844 Z M 7.777344 9.332031 L 6.222656 9.332031 L 6.222656 10.890625 L 7.777344 10.890625 Z M 7.777344 9.332031 "/>
</g>
</svg>
