<?xml version="1.0" encoding="UTF-8"?>
<svg xmlns="http://www.w3.org/2000/svg" xmlns:xlink="http://www.w3.org/1999/xlink" width="14pt" height="14pt" viewBox="0 0 14 14" version="1.1">
<g id="surface1">
<path style=" stroke:none;fill-rule:nonzero;fill:rgb(96.862745%,57.647059%,11.764706%);fill-opacity:1;" d="M 4.003906 5.375 C 3.210938 5.398438 2.4375 5.644531 1.773438 6.082031 L 2.238281 6.929688 C 2.699219 6.613281 3.238281 6.433594 3.796875 6.402344 C 4.527344 6.402344 4.761719 6.882812 4.785156 7.457031 C 2.527344 7.699219 1.554688 8.308594 1.554688 9.464844 C 1.554688 9.886719 1.726562 10.289062 2.027344 10.582031 C 2.328125 10.875 2.738281 11.035156 3.15625 11.019531 C 3.785156 10.988281 4.378906 10.726562 4.828125 10.289062 L 4.875 10.289062 L 4.960938 10.890625 L 6.019531 10.890625 L 6.019531 7.714844 C 6.019531 6.199219 5.351562 5.375 4.003906 5.375 Z M 4.785156 9.464844 C 4.484375 9.8125 4.058594 10.027344 3.601562 10.058594 C 3.148438 10.058594 2.824219 9.847656 2.824219 9.363281 C 2.824219 8.882812 3.304688 8.4375 4.785156 8.253906 Z M 10.335938 5.375 C 9.753906 5.40625 9.203125 5.644531 8.78125 6.042969 L 8.78125 3.140625 L 7.503906 3.140625 L 7.503906 10.921875 L 8.507812 10.921875 L 8.617188 10.34375 L 8.65625 10.34375 C 9.039062 10.765625 9.566406 11.019531 10.132812 11.050781 C 11.332031 11.050781 12.46875 9.980469 12.46875 8.121094 C 12.445312 6.457031 11.667969 5.375 10.304688 5.375 Z M 9.902344 10.042969 C 9.492188 10.023438 9.105469 9.863281 8.804688 9.589844 L 8.804688 7.03125 C 9.109375 6.679688 9.539062 6.460938 10.003906 6.425781 C 10.78125 6.425781 11.167969 7.0625 11.167969 8.144531 C 11.136719 9.363281 10.585938 10.003906 9.871094 10.003906 Z M 9.902344 10.042969 "/>
</g>
</svg>
