<?xml version="1.0" encoding="UTF-8"?>
<svg xmlns="http://www.w3.org/2000/svg" xmlns:xlink="http://www.w3.org/1999/xlink" width="14pt" height="14pt" viewBox="0 0 14 14" version="1.1">
<g id="surface1">
<path style=" stroke:none;fill-rule:nonzero;fill:rgb(44.313725%,69.411765%,89.411765%);fill-opacity:1;" d="M 7.574219 5.148438 C 7.59375 4.90625 7.507812 4.667969 7.335938 4.496094 C 7.160156 4.328125 6.921875 4.242188 6.679688 4.261719 C 6.234375 4.273438 5.820312 4.484375 5.546875 4.835938 L 4.835938 4.183594 C 5.332031 3.585938 6.0625 3.234375 6.835938 3.21875 C 7.351562 3.15625 7.871094 3.324219 8.253906 3.679688 C 8.632812 4.03125 8.84375 4.535156 8.820312 5.054688 C 8.820312 6.464844 7.09375 6.953125 7.265625 8.382812 L 6.128906 8.382812 C 5.902344 6.773438 7.574219 6.136719 7.574219 5.148438 Z M 6.695312 10.890625 C 7.140625 10.847656 7.476562 10.472656 7.476562 10.03125 C 7.476562 9.585938 7.140625 9.210938 6.695312 9.171875 C 6.253906 9.210938 5.914062 9.585938 5.914062 10.03125 C 5.914062 10.472656 6.253906 10.847656 6.695312 10.890625 Z M 6.695312 10.890625 "/>
<path style=" stroke:none;fill-rule:nonzero;fill:rgb(96.862745%,57.647059%,11.764706%);fill-opacity:1;" d="M 10.789062 6.8125 C 10.789062 6.648438 10.722656 6.488281 10.601562 6.375 C 10.480469 6.261719 10.316406 6.207031 10.148438 6.222656 C 9.84375 6.242188 9.5625 6.390625 9.371094 6.632812 L 8.875 6.167969 C 9.207031 5.734375 9.714844 5.472656 10.257812 5.445312 C 10.625 5.402344 10.992188 5.519531 11.265625 5.773438 C 11.535156 6.023438 11.683594 6.382812 11.667969 6.75 C 11.667969 7.746094 10.445312 8.097656 10.554688 9.085938 L 9.777344 9.085938 C 9.597656 7.964844 10.789062 7.519531 10.789062 6.8125 Z M 10.15625 10.890625 C 10.410156 10.90625 10.644531 10.765625 10.753906 10.535156 C 10.859375 10.308594 10.816406 10.035156 10.640625 9.851562 C 10.46875 9.667969 10.199219 9.609375 9.964844 9.707031 C 9.730469 9.800781 9.578125 10.03125 9.582031 10.28125 C 9.574219 10.441406 9.628906 10.59375 9.738281 10.710938 C 9.847656 10.824219 10 10.890625 10.15625 10.890625 Z M 10.15625 10.890625 "/>
<path style=" stroke:none;fill-rule:nonzero;fill:rgb(96.862745%,57.647059%,11.764706%);fill-opacity:1;" d="M 4.277344 6.8125 C 4.28125 6.648438 4.210938 6.488281 4.089844 6.375 C 3.96875 6.261719 3.804688 6.207031 3.640625 6.222656 C 3.332031 6.242188 3.050781 6.390625 2.863281 6.632812 L 2.332031 6.128906 C 2.683594 5.703125 3.203125 5.453125 3.757812 5.445312 C 4.125 5.402344 4.492188 5.519531 4.761719 5.773438 C 5.03125 6.023438 5.175781 6.382812 5.15625 6.75 C 5.15625 7.746094 3.9375 8.097656 4.042969 9.085938 L 3.265625 9.085938 C 3.109375 7.964844 4.277344 7.519531 4.277344 6.8125 Z M 3.65625 10.890625 C 3.910156 10.917969 4.15625 10.789062 4.269531 10.558594 C 4.386719 10.332031 4.351562 10.058594 4.183594 9.867188 C 4.011719 9.679688 3.742188 9.613281 3.503906 9.707031 C 3.265625 9.796875 3.109375 10.027344 3.109375 10.28125 C 3.097656 10.597656 3.339844 10.867188 3.65625 10.890625 Z M 3.65625 10.890625 "/>
</g>
</svg>
